HIERARCHY
ROOT Pelvis
{
	OFFSET 0.000000 0.941512 0.000000
	CHANNELS 6 Xposition Yposition Zposition Zrotation Yrotation Xrotation 
	JOINT Pelvis_L_Hip
	{
		OFFSET 0.000000 0.000000 0.000000
		CHANNELS 3 Zrotation Yrotation Xrotation
		JOINT L_Hip
		{
			OFFSET 0.062321 -0.080322 -0.016990
			CHANNELS 3 Zrotation Yrotation Xrotation
			JOINT L_Knee
			{
				OFFSET 0.093051 -0.381305 -0.029784
				CHANNELS 3 Zrotation Yrotation Xrotation
				JOINT L_Ankle
				{
					OFFSET -0.010371 -0.431000 -0.033614
					CHANNELS 3 Zrotation Yrotation Xrotation
					End Site #name: L_Foot
					{
						OFFSET 0.069299 -0.038670 0.119418
					}
				}
			}
		}
	}
	JOINT Pelvis_R_Hip
	{
		OFFSET 0.000000 0.000000 0.000000
		CHANNELS 3 Zrotation Yrotation Xrotation
		JOINT R_Hip
		{
			OFFSET -0.055334 -0.094904 -0.002373
			CHANNELS 3 Zrotation Yrotation Xrotation
			JOINT R_Knee
			{
				OFFSET -0.064207 -0.384370 -0.019592
				CHANNELS 3 Zrotation Yrotation Xrotation
				JOINT R_Ankle
				{
					OFFSET 0.025418 -0.419734 -0.065953
					CHANNELS 3 Zrotation Yrotation Xrotation
					End Site #name: R_Foot
					{
						OFFSET -0.057233 -0.039888 0.132134
					}
				}
			}
		}
	}
	JOINT Pelvis_Spine1
	{
		OFFSET 0.000000 0.000000 0.000000
		CHANNELS 3 Zrotation Yrotation Xrotation
		JOINT Spine1
		{
			OFFSET -0.005562 0.124093 -0.043360
			CHANNELS 3 Zrotation Yrotation Xrotation
			JOINT Spine2
			{
				OFFSET 0.012244 0.139499 0.029894
				CHANNELS 3 Zrotation Yrotation Xrotation
				JOINT Spine3
				{
					OFFSET -0.002556 0.056561 0.009225
					CHANNELS 3 Zrotation Yrotation Xrotation
					JOINT Spine3_Neck
					{
						OFFSET 0.000000 0.000000 0.000000
						CHANNELS 3 Zrotation Yrotation Xrotation
						JOINT Neck
						{
							OFFSET -0.005205 0.217920 -0.024551
							CHANNELS 3 Zrotation Yrotation Xrotation
							End Site #name: Head
							{
								OFFSET 0.002365 0.091850 0.046637
							}
						}
					}
					JOINT Spine3_L_Collar
					{
						OFFSET 0.000000 0.000000 0.000000
						CHANNELS 3 Zrotation Yrotation Xrotation
						JOINT L_Collar
						{
							OFFSET 0.072225 0.116603 -0.009480
							CHANNELS 3 Zrotation Yrotation Xrotation
							JOINT L_Shoulder
							{
								OFFSET 0.115937 -0.058643 -0.021018
								CHANNELS 3 Zrotation Yrotation Xrotation
								JOINT L_Elbow
								{
									OFFSET 0.021994 -0.254722 -0.024492
									CHANNELS 3 Zrotation Yrotation Xrotation
									End Site #name: L_Wrist
									{
										OFFSET 0.048810 -0.240214 0.103329
									}
								}
							}
						}
					}
					JOINT Spine3_R_Collar
					{
						OFFSET 0.000000 0.000000 0.000000
						CHANNELS 3 Zrotation Yrotation Xrotation
						JOINT R_Collar
						{
							OFFSET -0.073372 0.120704 -0.024611
							CHANNELS 3 Zrotation Yrotation Xrotation
							JOINT R_Shoulder
							{
								OFFSET -0.108089 -0.054969 -0.020504
								CHANNELS 3 Zrotation Yrotation Xrotation
								JOINT R_Elbow
								{
									OFFSET -0.033684 -0.260739 0.009889
									CHANNELS 3 Zrotation Yrotation Xrotation
									End Site #name: R_Wrist
									{
										OFFSET -0.067980 -0.232763 0.118463
									}
								}
							}
						}
					}
				}
			}
		}
	}
}
MOTION
Frames: 5
Frame Time: 0.041667
0.000000 0.931511 0.000000 -2.965932 -4.868544 -4.367845 0.000000 0.000000 0.000000 6.330965 -2.542370 -11.643351 -1.858620 0.106394 15.361806 1.598847 5.552481 0.448547 0.000000 0.000000 0.000000 2.537972 -0.607100 2.623969 4.107085 -0.744950 -5.373391 -0.994422 -3.718980 0.363976 0.000000 0.000000 0.000000 6.320882 -3.639015 16.778834 -0.682925 0.133582 0.467243 6.657171 5.852948 -3.126272 0.000000 0.000000 0.000000 -10.099867 4.964497 -0.882346 0.000000 0.000000 0.000000 6.770309 -4.930724 -1.573794 -17.214570 2.567813 4.184097 -1.740425 -2.101616 -5.911428 0.000000 0.000000 0.000000 -24.633898 12.461144 -5.292523 14.822190 -3.082466 14.103647 4.231727 7.285594 -13.886565 
0.003015 0.930535 0.010483 -3.350967 -3.701241 -4.932597 0.000000 0.000000 0.000000 5.595694 -2.301145 -10.134525 -0.887611 -0.100891 12.421790 1.299674 6.435793 1.610424 0.000000 0.000000 0.000000 2.639685 -0.861379 3.951013 4.311806 -0.766725 -5.051042 -1.550514 -4.660253 -0.256860 0.000000 0.000000 0.000000 5.532746 -3.469937 17.258030 0.070100 -0.001515 0.222824 7.103297 6.138260 -3.299891 0.000000 0.000000 0.000000 -10.024026 4.931721 -0.614077 0.000000 0.000000 0.000000 6.063478 -4.710401 -1.519343 -16.603229 2.379480 3.877769 -2.690351 -2.582637 -5.927914 0.000000 0.000000 0.000000 -24.236481 12.385344 -5.404536 14.636036 -3.016209 13.905293 3.988630 6.923653 -13.394764 
0.008423 0.929218 0.021636 -3.799990 -2.842472 -5.288835 0.000000 0.000000 0.000000 5.340983 -2.178558 -9.426605 -0.540483 -0.181594 12.509423 1.449891 7.054825 1.739365 0.000000 0.000000 0.000000 2.691792 -1.000786 4.662696 4.476258 -0.771366 -4.107737 -2.058887 -5.316818 -1.018250 0.000000 0.000000 0.000000 4.553251 -3.042884 16.437189 0.781370 -0.090517 0.945430 7.486213 6.920556 -3.352926 0.000000 0.000000 0.000000 -9.510190 4.674669 -0.435187 0.000000 0.000000 0.000000 7.032574 -1.706003 0.466633 -16.878199 1.058756 -1.631019 -6.013595 -3.249326 -2.317192 0.000000 0.000000 0.000000 -23.315199 11.621618 -5.003177 13.679454 -2.719213 13.036444 3.724917 6.522343 -12.831146 
0.014341 0.928686 0.035310 -3.727744 -1.721208 -6.697328 0.000000 0.000000 0.000000 5.147288 -1.950671 -8.228680 -1.067913 -0.120386 13.934008 1.478377 6.175125 1.090592 0.000000 0.000000 0.000000 2.564133 -1.300019 6.328737 3.941377 -0.669710 -2.292584 -2.811354 -6.516112 -2.039985 0.000000 0.000000 0.000000 2.351722 -2.219696 15.865881 1.474182 -0.153132 2.684115 8.266526 7.446074 -3.627110 0.000000 0.000000 0.000000 -8.775171 4.316905 -0.089355 0.000000 0.000000 0.000000 7.587895 -2.392011 0.211269 -16.467044 0.647343 -3.095210 -8.033617 -4.457471 -3.184146 0.000000 0.000000 0.000000 -22.778505 12.068443 -5.550785 13.883265 -2.773435 13.167341 1.293070 5.236027 -13.861424 
0.022219 0.928423 0.048674 -3.182230 -1.029965 -7.629084 0.000000 0.000000 0.000000 3.850337 -1.745224 -7.172936 -0.944073 -0.178677 15.101522 1.998123 5.538859 -0.273199 0.000000 0.000000 0.000000 1.771996 -1.358008 7.082269 3.427285 -0.535316 -0.028830 -3.403955 -7.427940 -2.918520 0.000000 0.000000 0.000000 0.160723 -1.399588 15.163479 1.665634 -0.172914 3.224670 8.778022 7.825982 -3.284204 0.000000 0.000000 0.000000 -8.110292 4.006563 0.303443 0.000000 0.000000 0.000000 7.755896 -2.452206 0.240234 -15.527290 0.265470 -4.496359 -9.409845 -5.510601 -4.402607 0.000000 0.000000 0.000000 -22.818138 12.178927 -5.737196 13.353708 -2.580849 12.535139 0.332328 5.381150 -16.184783 
